<svg id="Capa_1" data-name="Capa 1" xmlns="http://www.w3.org/2000/svg" viewBox="0 0 114.99 716.62"><path d="M593.74,239.18A53.74,53.74,0,1,1,540,185.45,53.74,53.74,0,0,1,593.74,239.18Z" transform="translate(-482.51 -181.69)" fill="none" stroke="#ffff50" stroke-miterlimit="10" stroke-width="7.52"/><path d="M593.74,439.73A53.74,53.74,0,1,1,540,386,53.74,53.74,0,0,1,593.74,439.73Z" transform="translate(-482.51 -181.69)" fill="#ffff50"/><path d="M593.74,640.27A53.74,53.74,0,1,1,540,586.54,53.74,53.74,0,0,1,593.74,640.27Z" transform="translate(-482.51 -181.69)" fill="none" stroke="#ffff50" stroke-miterlimit="10" stroke-width="7.52"/><path d="M593.74,840.82A53.74,53.74,0,1,1,540,787.08,53.74,53.74,0,0,1,593.74,840.82Z" transform="translate(-482.51 -181.69)" fill="none" stroke="#ffff50" stroke-miterlimit="10" stroke-width="7.52"/></svg>