<svg id="Capa_1" data-name="Capa 1" xmlns="http://www.w3.org/2000/svg" viewBox="0 0 763.93 495.7"><path d="M455,659.77V701a5.36,5.36,0,0,1-5.35,5.38H408.33A5.37,5.37,0,0,1,403,701V659.77a5.36,5.36,0,0,1,5.38-5.35H449.6A5.36,5.36,0,0,1,455,659.77Z" transform="translate(-151.41 -280.61)" fill="#bfecf9"/><path d="M181,411.41v18.88a5.35,5.35,0,0,1-5.34,5.38H156.76a5.36,5.36,0,0,1-5.35-5.38V411.41a5.34,5.34,0,0,1,5.35-5.34h18.91A5.34,5.34,0,0,1,181,411.41Z" transform="translate(-151.41 -280.61)" fill="#bfecf9"/><path d="M288.33,479.16v36.27a7.85,7.85,0,0,1-7.86,7.86H244.2a7.87,7.87,0,0,1-7.89-7.86V479.16a7.86,7.86,0,0,1,7.89-7.86h36.27A7.84,7.84,0,0,1,288.33,479.16Z" transform="translate(-151.41 -280.61)" fill="#bfecf9"/><path d="M304.05,586.65v18.88a5.37,5.37,0,0,1-5.37,5.35H279.8a5.36,5.36,0,0,1-5.38-5.35V586.65a5.37,5.37,0,0,1,5.38-5.38h18.88A5.38,5.38,0,0,1,304.05,586.65Z" transform="translate(-151.41 -280.61)" fill="#bfecf9"/><path d="M915.34,280.61V776.3H835a14.82,14.82,0,0,1-3.8-.49,15.53,15.53,0,0,1-11.8-15.11V721.18a18.72,18.72,0,0,0-18.71-18.7H579.77a33.58,33.58,0,0,1-33.58-33.58V584.49a25.72,25.72,0,0,0-25.72-25.71H456.84a33.57,33.57,0,0,1-33.58-33.58V459.64a25.79,25.79,0,0,0-25.71-25.72H314.46a34.8,34.8,0,0,1-34.81-34.8V312.61a10.41,10.41,0,0,0-10.4-10.43H249.66a7.83,7.83,0,0,1-7.8-7.81v-5.76a8,8,0,0,0-7.22-8Z" transform="translate(-151.41 -280.61)" fill="#bfecf9"/></svg>