<svg id="Capa_1" data-name="Capa 1" xmlns="http://www.w3.org/2000/svg" viewBox="0 0 521.07 338.11"><path d="M226.44,277.44v28.14a3.67,3.67,0,0,1-3.66,3.68H194.64a3.68,3.68,0,0,1-3.68-3.68V277.44a3.67,3.67,0,0,1,3.68-3.66h28.14A3.66,3.66,0,0,1,226.44,277.44Z" transform="translate(-19.39 -18.81)" fill="#fff"/><path d="M39.59,108V120.9a3.66,3.66,0,0,1-3.66,3.67H23.05a3.66,3.66,0,0,1-3.66-3.67V108a3.66,3.66,0,0,1,3.66-3.66H35.93A3.66,3.66,0,0,1,39.59,108Z" transform="translate(-19.39 -18.81)" fill="#fff"/><path d="M112.79,154.24V179a5.37,5.37,0,0,1-5.37,5.37H82.68A5.37,5.37,0,0,1,77.31,179V154.24a5.36,5.36,0,0,1,5.37-5.37h24.74A5.36,5.36,0,0,1,112.79,154.24Z" transform="translate(-19.39 -18.81)" fill="#fff"/><rect x="83.91" y="205.09" width="20.2" height="20.2" rx="3.66" fill="#fff"/><path d="M540.46,18.81V356.92H485.68a10,10,0,0,1-2.59-.34,10.61,10.61,0,0,1-8-10.31V319.32a12.77,12.77,0,0,0-12.76-12.76H311.57a22.91,22.91,0,0,1-22.9-22.9V226.09a17.55,17.55,0,0,0-17.54-17.55h-43.4a22.89,22.89,0,0,1-22.91-22.9V140.93a17.6,17.6,0,0,0-17.54-17.55H130.61a23.73,23.73,0,0,1-23.74-23.74v-59a7.11,7.11,0,0,0-7.1-7.12H86.41a5.33,5.33,0,0,1-5.32-5.32V24.27a5.49,5.49,0,0,0-4.92-5.46Z" transform="translate(-19.39 -18.81)" fill="#fff"/></svg>