<svg id="Capa_1" data-name="Capa 1" xmlns="http://www.w3.org/2000/svg" viewBox="0 0 363.26 604.34"><path d="M392.17,404.46v236.4H354a7.24,7.24,0,0,1-1.81-.23,7.41,7.41,0,0,1-5.61-7.19V614.65a8.89,8.89,0,0,0-8.9-8.9H232.6a16,16,0,0,1-16-16V549.65a12.24,12.24,0,0,0-12.24-12.23H174.14a16,16,0,0,1-16-16V490.29A12.24,12.24,0,0,0,146,478.06H106.44a16.55,16.55,0,0,1-16.55-16.55V420.36a5,5,0,0,0-5-5H75.63a3.7,3.7,0,0,1-3.7-3.7v-7.24Z" transform="translate(-28.91 -36.51)" fill="#e61952"/><path d="M173.25,585.45v19.62a2.56,2.56,0,0,1-2.55,2.56H151.08a2.56,2.56,0,0,1-2.56-2.56V585.45a2.55,2.55,0,0,1,2.56-2.55H170.7A2.55,2.55,0,0,1,173.25,585.45Z" transform="translate(-28.91 -36.51)" fill="#e61952"/><path d="M43,467.35v9a2.55,2.55,0,0,1-2.55,2.56h-9a2.55,2.55,0,0,1-2.55-2.56v-9a2.55,2.55,0,0,1,2.55-2.55h9A2.55,2.55,0,0,1,43,467.35Z" transform="translate(-28.91 -36.51)" fill="#e61952"/><rect x="40.38" y="459.3" width="24.73" height="24.73" rx="3.74" fill="#e61952"/><rect x="58.5" y="511.6" width="14.08" height="14.08" rx="2.55" fill="#e61952"/><path d="M72.33,81.87h75.86a0,0,0,0,1,0,0V157a8.76,8.76,0,0,1-8.76,8.76H72.33A8.76,8.76,0,0,1,63.57,157V90.62A8.76,8.76,0,0,1,72.33,81.87Z" transform="translate(200.76 -18.61) rotate(90)" fill="#fff"/><rect x="193.83" y="127.94" width="24.73" height="24.73" rx="2.55" transform="translate(317.6 -102.4) rotate(90)" fill="#fff"/><rect x="87.49" y="36.51" width="24.73" height="24.73" rx="4.16" transform="translate(119.82 -87.49) rotate(90)" fill="#fff"/><path d="M50.59,288.75H65.26a6.84,6.84,0,0,1,6.84,6.84v14.67a3.63,3.63,0,0,1-3.63,3.63H50.59A3.63,3.63,0,0,1,47,310.26V292.38a3.63,3.63,0,0,1,3.63-3.63Z" transform="translate(331.94 205.28) rotate(90)" fill="#fff"/><rect x="284.08" y="77.23" width="24.73" height="24.73" rx="3.74" transform="translate(357.12 -243.36) rotate(90)" fill="#fff"/><path d="M392.17,182.63V404.46H71.93v-9.87a3.71,3.71,0,0,1,3.7-3.71H85a5,5,0,0,0,5-4.95V346.06a14.33,14.33,0,0,1,.3-2.95h0A15,15,0,0,1,102,331.32a15.73,15.73,0,0,1,2.93-.28h43.19a15.7,15.7,0,0,0,15.71-15.7V264.66a9.25,9.25,0,0,0-9.25-9.25h-9.38a2.54,2.54,0,0,1-2.54-2.54V233.43a2.54,2.54,0,0,1,2.54-2.54h9.39a9.24,9.24,0,0,0,9.24-9.24v-39H238a8.48,8.48,0,0,0,8.48-8.48v-6.68a2.53,2.53,0,0,1,2.53-2.53H269.1a2.53,2.53,0,0,1,2.53,2.53v6.68a8.48,8.48,0,0,0,8.48,8.48h50.33a9.88,9.88,0,0,0,9.88-9.88V155a6.89,6.89,0,0,1,6.9-6.89h22.4a6.89,6.89,0,0,1,6.9,6.9v17.78a9.88,9.88,0,0,0,9.89,9.88Z" transform="translate(-28.91 -36.51)" fill="#fff"/><rect x="57.21" y="219.39" width="14.08" height="14.08" rx="2.55" transform="translate(261.77 125.67) rotate(90)" fill="#fff"/><rect x="108.79" y="196.75" width="14.08" height="14.08" rx="2.55" transform="translate(290.71 51.45) rotate(90)" fill="#fff"/><rect x="350.56" y="41.44" width="14.08" height="14.08" rx="2.55" transform="translate(377.17 -345.62) rotate(90)" fill="#fff"/><path d="M181.65,182.64c-15.45-5.88-28.62-15.07-33.85-34.57l-19,18c15.91,4.56,28.86,16.11,35,33.36Z" transform="translate(-28.91 -36.51)" fill="#fff"/><path d="M105.4,331.88c-17.64-4.67-28.84-15.67-33.32-33.32L56.93,313.71c15.83,6,27.1,17,33.32,33.32Z" transform="translate(-28.91 -36.51)" fill="#fff"/></svg>