<svg id="Capa_1" data-name="Capa 1" xmlns="http://www.w3.org/2000/svg" viewBox="0 0 90.89 95.42"><rect x="83.38" y="86.67" width="5.58" height="19.56" rx="2.79" transform="translate(-80.71 23.56) rotate(-27.57)" fill="#00b3ea" stroke="#560b26" stroke-miterlimit="10" stroke-width="0.73"/><rect x="67.66" y="73.23" width="25.71" height="17.12" rx="2.28" transform="translate(-74.57 19.27) rotate(-27.57)" fill="#00b3ea" stroke="#560b26" stroke-miterlimit="10" stroke-width="0.83"/><path d="M114.38,87.19,92.73,85.07,84.81,69.89l10.64-19a2.28,2.28,0,0,1,3.89.26L116.4,83.85A2.29,2.29,0,0,1,114.38,87.19Z" transform="translate(-45.86 -27.27)" fill="#00b3ea" stroke="#560b26" stroke-miterlimit="10" stroke-width="0.83"/><path d="M48.71,89A44.23,44.23,0,0,1,80.17,34.5" transform="translate(-45.86 -27.27)" fill="none" stroke="#560b26" stroke-linecap="round" stroke-miterlimit="10" stroke-width="2.53"/><path d="M122.75,108.27a44.15,44.15,0,0,1-62.89,0" transform="translate(-45.86 -27.27)" fill="none" stroke="#560b26" stroke-linecap="round" stroke-miterlimit="10" stroke-width="2.53"/><path d="M102.42,34.5A44.23,44.23,0,0,1,133.9,89" transform="translate(-45.86 -27.27)" fill="none" stroke="#560b26" stroke-linecap="round" stroke-miterlimit="10" stroke-width="2.53"/><circle cx="45.45" cy="5.95" r="5.95" fill="#560b26"/><circle cx="7.22" cy="71.57" r="5.95" fill="#560b26"/><circle cx="83.67" cy="71.57" r="5.95" fill="#560b26"/><line x1="63.57" y1="35.03" x2="66.88" y2="24.48" fill="none" stroke="#560b26" stroke-linecap="round" stroke-miterlimit="10" stroke-width="1.27"/><line x1="68.81" y1="45.07" x2="79.36" y2="48.39" fill="none" stroke="#560b26" stroke-linecap="round" stroke-miterlimit="10" stroke-width="1.27"/><line x1="66.19" y1="40.05" x2="75.42" y2="35.23" fill="none" stroke="#560b26" stroke-linecap="round" stroke-miterlimit="10" stroke-width="1.27"/></svg>