<svg id="Capa_1" data-name="Capa 1" xmlns="http://www.w3.org/2000/svg" viewBox="0 0 17.19 17.19"><g id="Instagram"><path d="M19.24,18.78c2.29,0,2.56,0,3.48,0a4.47,4.47,0,0,1,1.6.3,3.08,3.08,0,0,1,1,.65,2.71,2.71,0,0,1,.65,1,5.29,5.29,0,0,1,.3,1.6c0,.9,0,1.18,0,3.48s0,2.56,0,3.48a4.72,4.72,0,0,1-.3,1.6,2.94,2.94,0,0,1-.65,1,2.48,2.48,0,0,1-1,.65,5,5,0,0,1-1.6.3c-.9,0-1.19,0-3.48,0s-2.56,0-3.48,0a4.26,4.26,0,0,1-1.6-.3,2.7,2.7,0,0,1-1-.65,2.67,2.67,0,0,1-.65-1,5.29,5.29,0,0,1-.3-1.6c0-.9,0-1.19,0-3.48s0-2.57,0-3.48a4.47,4.47,0,0,1,.3-1.6,2.79,2.79,0,0,1,.65-1,2.71,2.71,0,0,1,1-.65,5.29,5.29,0,0,1,1.6-.3c.9,0,1.18,0,3.48,0m0-1.55c-2.34,0-2.63,0-3.55.05a6.6,6.6,0,0,0-2.08.4,4,4,0,0,0-1.52,1,4.36,4.36,0,0,0-1,1.52,6.14,6.14,0,0,0-.4,2.09c0,.92,0,1.22,0,3.55s0,2.62,0,3.54a6.61,6.61,0,0,0,.4,2.09,4.06,4.06,0,0,0,1,1.52,4.46,4.46,0,0,0,1.52,1,6.36,6.36,0,0,0,2.08.39c.92.05,1.22.05,3.55.05s2.63,0,3.54-.05A6.94,6.94,0,0,0,24.87,34a4.1,4.1,0,0,0,1.52-1,4.36,4.36,0,0,0,1-1.52,6.12,6.12,0,0,0,.39-2.09c0-.92,0-1.22,0-3.54s0-2.63,0-3.55a6.42,6.42,0,0,0-.39-2.09,4.06,4.06,0,0,0-1-1.52,4.29,4.29,0,0,0-1.52-1,6.09,6.09,0,0,0-2.09-.4c-.91-.05-1.2-.05-3.54-.05m0,4.18a4.42,4.42,0,1,0,4.41,4.42,4.42,4.42,0,0,0-4.41-4.42m0,7.3a2.87,2.87,0,1,1,2.86-2.87,2.88,2.88,0,0,1-2.86,2.87m5.62-7.47a1,1,0,1,0-1,1,1,1,0,0,0,1-1" transform="translate(-10.65 -17.23)" fill="#fff"/></g></svg>