<svg id="Capa_1" data-name="Capa 1" xmlns="http://www.w3.org/2000/svg" viewBox="0 0 17.01 17.01"><g id="WhatsUp"><path d="M25.27,19.81a8.51,8.51,0,0,0-13.4,10.27L11.2,34l4-.72a8.47,8.47,0,0,0,4.06,1h0a8.51,8.51,0,0,0,6-14.52m-6,13.1h0a6.93,6.93,0,0,1-3.61-1l-.26-.15-2.68.7.71-2.62-.17-.26a7.07,7.07,0,1,1,6,3.32m3.87-5.29c.21.1.35.16.4.25a1.67,1.67,0,0,1-.12,1,2.15,2.15,0,0,1-1.43,1,2.87,2.87,0,0,1-1.34-.08,11.37,11.37,0,0,1-1.21-.44,9.53,9.53,0,0,1-3.63-3.21A4.08,4.08,0,0,1,14.92,24a2.34,2.34,0,0,1,.75-1.77.77.77,0,0,1,.56-.27h.4c.14,0,.31-.05.48.36s.61,1.48.66,1.59a.37.37,0,0,1,0,.37,1,1,0,0,1-.21.35c-.11.12-.23.28-.32.37s-.22.22-.1.43a6.36,6.36,0,0,0,1.18,1.48,6.21,6.21,0,0,0,1.72,1.06c.21.1.34.09.46-.06s.53-.61.67-.83.28-.17.48-.1a14.48,14.48,0,0,1,1.46.67" transform="translate(-10.73 -17.32)" fill="#fff" fill-rule="evenodd"/></g></svg>