<svg id="Capa_1" data-name="Capa 1" xmlns="http://www.w3.org/2000/svg" viewBox="0 0 345.21 367.94"><path d="M53,61.62h75.86a0,0,0,0,1,0,0v75.08a8.76,8.76,0,0,1-8.76,8.76H53a8.76,8.76,0,0,1-8.76-8.76V70.38A8.76,8.76,0,0,1,53,61.62Z" transform="translate(162.46 0.72) rotate(90)" fill="#fff"/><rect x="174.51" y="107.7" width="24.73" height="24.73" rx="2.55" transform="translate(279.3 -83.08) rotate(90)" fill="#fff"/><rect x="68.16" y="16.27" width="24.73" height="24.73" rx="4.16" transform="translate(81.52 -68.16) rotate(90)" fill="#fff"/><path d="M31.26,268.51H45.93a6.84,6.84,0,0,1,6.84,6.84V290a3.63,3.63,0,0,1-3.63,3.63H31.26A3.63,3.63,0,0,1,27.64,290V272.13a3.63,3.63,0,0,1,3.63-3.63Z" transform="translate(293.64 224.6) rotate(90)" fill="#fff"/><rect x="264.75" y="56.98" width="24.73" height="24.73" rx="3.74" transform="translate(318.82 -224.04) rotate(90)" fill="#fff"/><path d="M372.84,162.39V384.21H52.6v-9.87a3.71,3.71,0,0,1,3.7-3.71h9.32a5,5,0,0,0,4.95-4.95V325.81a14.33,14.33,0,0,1,.3-2.95h0a15,15,0,0,1,11.79-11.78,15.73,15.73,0,0,1,2.93-.28h43.19a15.7,15.7,0,0,0,15.71-15.7V244.41a9.25,9.25,0,0,0-9.25-9.25h-9.38a2.54,2.54,0,0,1-2.54-2.54V213.18a2.54,2.54,0,0,1,2.54-2.54h9.39a9.24,9.24,0,0,0,9.24-9.24v-39h74.16a8.49,8.49,0,0,0,8.49-8.49v-6.68a2.53,2.53,0,0,1,2.53-2.53h20.1a2.53,2.53,0,0,1,2.53,2.53v6.68a8.49,8.49,0,0,0,8.48,8.49h50.33a9.88,9.88,0,0,0,9.88-9.88V134.72a6.9,6.9,0,0,1,6.9-6.9h22.4a6.9,6.9,0,0,1,6.9,6.9v17.79a9.88,9.88,0,0,0,9.89,9.88Z" transform="translate(-27.64 -16.27)" fill="#fff"/><rect x="37.88" y="199.15" width="14.08" height="14.08" rx="2.55" transform="translate(223.48 145) rotate(90)" fill="#fff"/><rect x="89.46" y="176.51" width="14.08" height="14.08" rx="2.55" transform="translate(252.41 70.78) rotate(90)" fill="#fff"/><rect x="331.23" y="21.2" width="14.08" height="14.08" rx="2.55" transform="translate(338.87 -326.29) rotate(90)" fill="#fff"/><path d="M162.32,162.39c-15.45-5.87-28.62-15.07-33.85-34.57l-19,18c15.91,4.57,28.86,16.11,35,33.36Z" transform="translate(-27.64 -16.27)" fill="#fff"/><path d="M86.07,311.63C68.43,307,57.24,296,52.75,278.32L37.6,293.47c15.83,6,27.11,17,33.32,33.32Z" transform="translate(-27.64 -16.27)" fill="#fff"/></svg>