<svg id="Capa_1" data-name="Capa 1" xmlns="http://www.w3.org/2000/svg" viewBox="0 0 380.43 140.82"><polygon points="365.91 118.64 365.91 140.82 343.74 140.82 302.76 99.84 261.79 140.8 239.6 140.8 239.6 118.64 280.58 77.66 239.61 36.69 239.61 14.52 261.79 14.52 302.76 55.49 329.25 28.99 351.43 29 351.42 51.17 324.93 77.66 365.91 118.64" fill="#fff"/><polygon points="343.77 14.48 358.26 0 380.43 0 380.43 22.17 365.94 36.66 365.95 14.48 343.77 14.48" fill="#fff"/><path d="M20.33,45.43H56.05v98h60.26v28.33h-96Z" transform="translate(-20.33 -30.91)" fill="#fff"/><path d="M128,112.91V45.43h35.73v66.4c0,21.65,9,30.31,24,30.31,14.79,0,23.81-8.66,23.81-30.31V45.43h35.18V171.72H187.4C150.06,171.73,128,150.62,128,112.91Z" transform="translate(-20.33 -30.91)" fill="#fff"/></svg>