<svg id="Capa_1" data-name="Capa 1" xmlns="http://www.w3.org/2000/svg" viewBox="0 0 88.99 77.58"><defs><style>.cls-1{fill:#FFF;}</style></defs><path class="cls-1" d="M521.63,302.24l-8-12-7,12H495.78l12.57-19.93L495.5,263.05h11.11l7.88,11.83,6.92-11.83h10.83l-12.45,19.76,13,19.43Z" transform="translate(-495.5 -263.05)"/><path class="cls-1" d="M573.39,302.24l-8-12-7,12H547.54l12.56-19.93-12.84-19.26h11.11l7.87,11.83,6.92-11.83H584l-12.45,19.76,13,19.43Z" transform="translate(-495.5 -263.05)"/><path class="cls-1" d="M508.3,319.75h.89a40.79,40.79,0,0,0,13.73,8.65,45.49,45.49,0,0,0,33.19-.11,39.63,39.63,0,0,0,13.93-9h.9v9.38a34.41,34.41,0,0,1-13.6,8.88,53.34,53.34,0,0,1-35.64.11,34.86,34.86,0,0,1-13.4-8.43Z" transform="translate(-495.5 -263.05)"/></svg>