<svg id="Capa_1" data-name="Capa 1" xmlns="http://www.w3.org/2000/svg" viewBox="0 0 83.77 77.58"><defs><style>.cls-1{fill:#FFF;}</style></defs><path class="cls-1" d="M521.63,177l-8-12-7,12H495.78l12.57-19.93L495.5,137.83h11.11l7.88,11.83,6.92-11.83h10.83l-12.45,19.76,13,19.43Z" transform="translate(-495.5 -137.83)"/><path class="cls-1" d="M508.3,194.53h.89a40.79,40.79,0,0,0,13.73,8.65,45.63,45.63,0,0,0,33.19-.11A39.63,39.63,0,0,0,570,194h.9v9.38a34.29,34.29,0,0,1-13.6,8.87,50.58,50.58,0,0,1-18,3.13,51.14,51.14,0,0,1-17.69-3A34.86,34.86,0,0,1,508.3,204Z" transform="translate(-495.5 -137.83)"/><path class="cls-1" d="M579.28,153.1v8.65H552.47V153.1Z" transform="translate(-495.5 -137.83)"/></svg>