<svg id="Capa_1" data-name="Capa 1" xmlns="http://www.w3.org/2000/svg" viewBox="0 0 79.2 156.59"><path d="M74,117.85a2.55,2.55,0,1,1-2.55-2.55A2.56,2.56,0,0,1,74,117.85Z" transform="translate(-68.9 -27.92)" fill="#00b3ea"/><path d="M98.7,117.85a2.55,2.55,0,1,1-2.55-2.55A2.55,2.55,0,0,1,98.7,117.85Z" transform="translate(-68.9 -27.92)" fill="#00b3ea"/><path d="M123.4,117.85a2.55,2.55,0,1,1-2.55-2.55A2.55,2.55,0,0,1,123.4,117.85Z" transform="translate(-68.9 -27.92)" fill="#00b3ea"/><path d="M148.1,117.85a2.55,2.55,0,1,1-2.55-2.55A2.55,2.55,0,0,1,148.1,117.85Z" transform="translate(-68.9 -27.92)" fill="#00b3ea"/><path d="M74,139.22a2.55,2.55,0,1,1-2.55-2.55A2.56,2.56,0,0,1,74,139.22Z" transform="translate(-68.9 -27.92)" fill="#00b3ea"/><circle cx="27.25" cy="111.3" r="2.55" fill="#00b3ea"/><path d="M123.4,139.22a2.55,2.55,0,1,1-2.55-2.55A2.55,2.55,0,0,1,123.4,139.22Z" transform="translate(-68.9 -27.92)" fill="#00b3ea"/><path d="M148.1,139.22a2.55,2.55,0,1,1-2.55-2.55A2.55,2.55,0,0,1,148.1,139.22Z" transform="translate(-68.9 -27.92)" fill="#00b3ea"/><path d="M74,160.59A2.55,2.55,0,1,1,71.45,158,2.56,2.56,0,0,1,74,160.59Z" transform="translate(-68.9 -27.92)" fill="#00b3ea"/><circle cx="27.25" cy="132.67" r="2.55" fill="#00b3ea"/><path d="M123.4,160.59a2.55,2.55,0,1,1-2.55-2.55A2.55,2.55,0,0,1,123.4,160.59Z" transform="translate(-68.9 -27.92)" fill="#00b3ea"/><path d="M148.1,160.59a2.55,2.55,0,1,1-2.55-2.55A2.55,2.55,0,0,1,148.1,160.59Z" transform="translate(-68.9 -27.92)" fill="#00b3ea"/><path d="M74,182a2.55,2.55,0,1,1-2.55-2.55A2.56,2.56,0,0,1,74,182Z" transform="translate(-68.9 -27.92)" fill="#00b3ea"/><path d="M98.7,182a2.55,2.55,0,1,1-2.55-2.55A2.55,2.55,0,0,1,98.7,182Z" transform="translate(-68.9 -27.92)" fill="#00b3ea"/><path d="M123.4,182a2.55,2.55,0,1,1-2.55-2.55A2.55,2.55,0,0,1,123.4,182Z" transform="translate(-68.9 -27.92)" fill="#00b3ea"/><path d="M148.1,182a2.55,2.55,0,1,1-2.55-2.55A2.55,2.55,0,0,1,148.1,182Z" transform="translate(-68.9 -27.92)" fill="#00b3ea"/><path d="M74,30.47a2.55,2.55,0,1,1-2.55-2.55A2.56,2.56,0,0,1,74,30.47Z" transform="translate(-68.9 -27.92)" fill="#00b3ea"/><path d="M98.7,30.47a2.55,2.55,0,1,1-2.55-2.55A2.55,2.55,0,0,1,98.7,30.47Z" transform="translate(-68.9 -27.92)" fill="#00b3ea"/><path d="M123.4,30.47a2.55,2.55,0,1,1-2.55-2.55A2.55,2.55,0,0,1,123.4,30.47Z" transform="translate(-68.9 -27.92)" fill="#00b3ea"/><path d="M148.1,30.47a2.55,2.55,0,1,1-2.55-2.55A2.55,2.55,0,0,1,148.1,30.47Z" transform="translate(-68.9 -27.92)" fill="#00b3ea"/><path d="M74,51.84a2.55,2.55,0,1,1-2.55-2.55A2.56,2.56,0,0,1,74,51.84Z" transform="translate(-68.9 -27.92)" fill="#00b3ea"/><circle cx="27.25" cy="23.92" r="2.55" fill="#00b3ea"/><path d="M123.4,51.84a2.55,2.55,0,1,1-2.55-2.55A2.55,2.55,0,0,1,123.4,51.84Z" transform="translate(-68.9 -27.92)" fill="#00b3ea"/><path d="M148.1,51.84a2.55,2.55,0,1,1-2.55-2.55A2.55,2.55,0,0,1,148.1,51.84Z" transform="translate(-68.9 -27.92)" fill="#00b3ea"/><path d="M74,73.21a2.55,2.55,0,1,1-2.55-2.55A2.56,2.56,0,0,1,74,73.21Z" transform="translate(-68.9 -27.92)" fill="#00b3ea"/><circle cx="27.25" cy="45.29" r="2.55" fill="#00b3ea"/><path d="M123.4,73.21a2.55,2.55,0,1,1-2.55-2.55A2.55,2.55,0,0,1,123.4,73.21Z" transform="translate(-68.9 -27.92)" fill="#00b3ea"/><path d="M148.1,73.21a2.55,2.55,0,1,1-2.55-2.55A2.55,2.55,0,0,1,148.1,73.21Z" transform="translate(-68.9 -27.92)" fill="#00b3ea"/><path d="M74,94.58A2.55,2.55,0,1,1,71.45,92,2.56,2.56,0,0,1,74,94.58Z" transform="translate(-68.9 -27.92)" fill="#00b3ea"/><path d="M98.7,94.58A2.55,2.55,0,1,1,96.15,92,2.55,2.55,0,0,1,98.7,94.58Z" transform="translate(-68.9 -27.92)" fill="#00b3ea"/><path d="M123.4,94.58A2.55,2.55,0,1,1,120.85,92,2.55,2.55,0,0,1,123.4,94.58Z" transform="translate(-68.9 -27.92)" fill="#00b3ea"/><path d="M148.1,94.58A2.55,2.55,0,1,1,145.55,92,2.55,2.55,0,0,1,148.1,94.58Z" transform="translate(-68.9 -27.92)" fill="#00b3ea"/></svg>