<svg id="Capa_1" data-name="Capa 1" xmlns="http://www.w3.org/2000/svg" viewBox="0 0 68.66 218.05"><polygon points="67.95 15.25 53.57 0 34.33 18.14 15.08 0 0.71 15.25 19.05 32.54 0.71 49.83 15.08 65.08 34.33 46.94 53.57 65.08 67.95 49.83 49.61 32.54 67.95 15.25" fill="#00b3ea"/><polygon points="67.95 90.29 53.57 75.03 34.33 93.17 15.08 75.03 0.71 90.29 19.05 107.58 0.71 124.86 15.08 140.12 34.33 121.97 53.57 140.12 67.95 124.86 49.61 107.58 67.95 90.29" fill="none" stroke="#00b3ea" stroke-miterlimit="10"/><polygon points="67.95 167.52 53.57 152.27 34.33 170.41 15.08 152.27 0.71 167.52 19.05 184.81 0.71 202.09 15.08 217.35 34.33 199.21 53.57 217.35 67.95 202.09 49.61 184.81 67.95 167.52" fill="none" stroke="#00b3ea" stroke-miterlimit="10"/></svg>