<svg id="Capa_1" data-name="Capa 1" xmlns="http://www.w3.org/2000/svg" viewBox="0 0 74.52 176.15"><circle cx="7.59" cy="7.59" r="7.09" fill="none" stroke="#00b3ea" stroke-miterlimit="10"/><path d="M120.93,97.1" transform="translate(-54.05 -38.71)" fill="none" stroke="#00b3ea" stroke-miterlimit="10" stroke-width="1.01"/><path d="M66.09,40.86l58.62,57a25.21,25.21,0,0,1,2.09,2.3h0a7.08,7.08,0,0,1,1.21,4.9,7.13,7.13,0,0,1-11.52,4.72l-.46-.4L56.09,50.8" transform="translate(-54.05 -38.71)" fill="none" stroke="#00b3ea" stroke-miterlimit="10"/><circle cx="66.93" cy="109.23" r="7.09" fill="none" stroke="#00b3ea" stroke-miterlimit="10"/><path d="M70.17,207.23" transform="translate(-54.05 -38.71)" fill="none" stroke="#00b3ea" stroke-miterlimit="10" stroke-width="1.01"/><path d="M126.4,152.39,69.37,211a25.22,25.22,0,0,1-2.29,2.09h0a7.13,7.13,0,0,1-9.62-10.32l.4-.46,58.61-59.93" transform="translate(-54.05 -38.71)" fill="none" stroke="#00b3ea" stroke-miterlimit="10"/></svg>