<svg id="Capa_1" data-name="Capa 1" xmlns="http://www.w3.org/2000/svg" viewBox="0 0 736.03 478.79"><path d="M551.91,689.44v39.75a5.18,5.18,0,0,0,5.17,5.19h39.75a5.19,5.19,0,0,0,5.19-5.19V689.44a5.17,5.17,0,0,0-5.19-5.17H557.08A5.16,5.16,0,0,0,551.91,689.44Z" transform="translate(-108.34 -322.93)" fill="#560b26"/><path d="M815.84,450.15v18.18a5.17,5.17,0,0,0,5.16,5.19h18.2a5.17,5.17,0,0,0,5.17-5.19V450.15A5.16,5.16,0,0,0,839.2,445H821A5.16,5.16,0,0,0,815.84,450.15Z" transform="translate(-108.34 -322.93)" fill="#560b26"/><path d="M712.44,515.42v35A7.59,7.59,0,0,0,720,558h35a7.58,7.58,0,0,0,7.58-7.58v-35a7.56,7.56,0,0,0-7.58-7.58H720A7.57,7.57,0,0,0,712.44,515.42Z" transform="translate(-108.34 -322.93)" fill="#560b26"/><rect x="588.97" y="290.87" width="28.53" height="28.53" rx="5.17" fill="#560b26"/><path d="M757.19,332.71v4.7a7.49,7.49,0,0,1-7.49,7.49H730.84a10,10,0,0,0-10,10.05v83.37a33.53,33.53,0,0,1-33.53,33.54H607.22a24.79,24.79,0,0,0-24.77,24.79v63.16a32.37,32.37,0,0,1-32.36,32.33H488.8A24.79,24.79,0,0,0,464,616.91v81.34a32.32,32.32,0,0,1-32.33,32.33H218.8a18,18,0,0,0-18,18V786.7a15,15,0,0,1-11.38,14.54,13.59,13.59,0,0,1-3.67.48H108.34V322.93H757.19Z" transform="translate(-108.34 -322.93)" fill="#560b26"/></svg>