<svg id="Capa_1" data-name="Capa 1" xmlns="http://www.w3.org/2000/svg" viewBox="0 0 243.21 243.2"><polygon points="168.44 82.56 136.96 114.03 129.17 114.03 129.17 106.25 160.66 74.77 168.44 74.77 168.44 82.56" fill="#fff"/><polygon points="165.75 69.67 170.84 64.58 178.63 64.58 178.63 72.37 173.54 77.46 173.54 69.67 165.75 69.67" fill="#fff"/><polygon points="233.02 17.97 201.54 49.45 193.75 49.45 193.75 41.67 225.24 10.18 233.03 10.18 233.02 17.97" fill="#fff"/><polygon points="230.34 5.09 235.42 0 243.21 0 243.21 7.79 238.12 12.88 238.12 5.09 230.34 5.09" fill="#fff"/><polygon points="103.85 147.14 72.38 178.62 64.58 178.62 64.58 170.84 96.07 139.35 103.86 139.35 103.85 147.14" fill="#fff"/><polygon points="101.17 134.25 106.25 129.17 114.04 129.17 114.04 136.96 108.96 142.04 108.96 134.25 101.17 134.25" fill="#fff"/><polygon points="39.27 211.72 7.79 243.2 0 243.2 0 235.42 31.49 203.93 39.27 203.94 39.27 211.72" fill="#fff"/><polygon points="36.58 198.84 41.67 193.75 49.46 193.75 49.46 201.54 44.37 206.63 44.37 198.84 36.58 198.84" fill="#fff"/></svg>