<svg id="Capa_1" data-name="Capa 1" xmlns="http://www.w3.org/2000/svg" viewBox="0 0 363.26 236.4"><path d="M381.87,82v236.4H343.68a7.24,7.24,0,0,1-1.81-.23,7.41,7.41,0,0,1-5.61-7.19V292.23a8.89,8.89,0,0,0-8.9-8.9H222.3a16,16,0,0,1-16-16V227.23A12.24,12.24,0,0,0,194.1,215H163.84a16,16,0,0,1-16-16V167.87a12.24,12.24,0,0,0-12.23-12.23H96.14a16.55,16.55,0,0,1-16.55-16.55V97.94a5,5,0,0,0-5-5H65.33a3.7,3.7,0,0,1-3.7-3.7V82Z" transform="translate(-18.61 -82.04)" fill="#e61952"/><path d="M163,263v19.62a2.56,2.56,0,0,1-2.55,2.56H140.78a2.56,2.56,0,0,1-2.56-2.56V263a2.55,2.55,0,0,1,2.56-2.55H160.4A2.55,2.55,0,0,1,163,263Z" transform="translate(-18.61 -82.04)" fill="#e61952"/><path d="M32.69,144.93v9a2.55,2.55,0,0,1-2.55,2.56h-9a2.55,2.55,0,0,1-2.55-2.56v-9a2.55,2.55,0,0,1,2.55-2.55h9A2.55,2.55,0,0,1,32.69,144.93Z" transform="translate(-18.61 -82.04)" fill="#e61952"/><rect x="40.38" y="91.36" width="24.73" height="24.73" rx="3.74" fill="#e61952"/><rect x="58.5" y="143.66" width="14.08" height="14.08" rx="2.55" fill="#e61952"/></svg>