<svg id="Capa_1" data-name="Capa 1" xmlns="http://www.w3.org/2000/svg" xmlns:xlink="http://www.w3.org/1999/xlink" viewBox="0 0 1366 957.59"><defs><linearGradient id="Degradado_sin_nombre_4" x1="998.88" y1="722.35" x2="8.95" y2="-0.65" gradientUnits="userSpaceOnUse"><stop offset="0" stop-color="#e61952"/><stop offset="1" stop-color="#560b26"/></linearGradient></defs><path d="M1387.87,28.82V796.29H283.58a3.42,3.42,0,0,0-3.42,3.42v1.87a3,3,0,0,1-3,3h-7.51a4,4,0,0,0-4,4v33.19a13.35,13.35,0,0,1-13.35,13.35H220.46A9.87,9.87,0,0,0,210.6,865v25.14A12.88,12.88,0,0,1,197.72,903h-24.4a9.87,9.87,0,0,0-9.88,9.86v32.38a12.87,12.87,0,0,1-12.87,12.87H65.84a7.17,7.17,0,0,0-7.18,7.18v15.16a6,6,0,0,1-4.53,5.79,5.47,5.47,0,0,1-1.46.19H21.87V28.82Z" transform="translate(-21.87 -28.82)" fill="url(#Degradado_sin_nombre_4)"/><path d="M198.44,941.72v15.82a2.06,2.06,0,0,0,2.06,2.06h15.82a2.06,2.06,0,0,0,2.07-2.06V941.72a2.06,2.06,0,0,0-2.07-2.06H200.5A2.06,2.06,0,0,0,198.44,941.72Z" transform="translate(-21.87 -28.82)" fill="#e61952"/><path d="M303.5,846.46v7.24a2.06,2.06,0,0,0,2.06,2.06h7.24a2.06,2.06,0,0,0,2.06-2.06v-7.24a2.06,2.06,0,0,0-2.06-2.06h-7.24A2.06,2.06,0,0,0,303.5,846.46Z" transform="translate(-21.87 -28.82)" fill="#e61952"/><rect x="240.47" y="840.6" width="19.95" height="19.95" rx="3.02" fill="#e61952"/><rect x="234.45" y="882.79" width="11.36" height="11.36" rx="2.06" fill="#e61952"/></svg>