<svg id="Capa_1" data-name="Capa 1" xmlns="http://www.w3.org/2000/svg" xmlns:xlink="http://www.w3.org/1999/xlink" viewBox="0 0 2040.45 1430.39"><defs><linearGradient id="Degradado_sin_nombre_4" x1="1459.41" y1="1035.95" x2="-19.3" y2="-44.02" gradientUnits="userSpaceOnUse"><stop offset="0" stop-color="#e61952"/><stop offset="1" stop-color="#560b26"/></linearGradient></defs><path d="M2040.45,0V1146.4H390.93a5.11,5.11,0,0,0-5.11,5.11v2.79a4.45,4.45,0,0,1-4.45,4.45H370.15a6,6,0,0,0-6,6v49.58a19.94,19.94,0,0,1-19.94,19.94H296.64A14.75,14.75,0,0,0,281.91,1249v37.55a19.25,19.25,0,0,1-19.24,19.23H226.23a14.74,14.74,0,0,0-14.76,14.73v48.36a19.23,19.23,0,0,1-19.23,19.23H65.68A10.72,10.72,0,0,0,55,1398.81v22.65a8.92,8.92,0,0,1-6.76,8.65,8.36,8.36,0,0,1-2.18.28H0V0Z" fill="url(#Degradado_sin_nombre_4)"/><path d="M263.75,1363.63v23.64a3.08,3.08,0,0,0,3.07,3.08h23.64a3.08,3.08,0,0,0,3.09-3.08v-23.64a3.07,3.07,0,0,0-3.09-3.07H266.82A3.07,3.07,0,0,0,263.75,1363.63Z" fill="#e61952"/><path d="M420.69,1221.34v10.81a3.07,3.07,0,0,0,3.07,3.09h10.82a3.07,3.07,0,0,0,3.07-3.09v-10.81a3.07,3.07,0,0,0-3.07-3.07H423.76A3.07,3.07,0,0,0,420.69,1221.34Z" fill="#e61952"/><path d="M359.21,1260.15v20.78a4.5,4.5,0,0,0,4.5,4.51H384.5a4.5,4.5,0,0,0,4.5-4.51v-20.78a4.5,4.5,0,0,0-4.5-4.51H363.71A4.5,4.5,0,0,0,359.21,1260.15Z" fill="#e61952"/><rect x="350.21" y="1318.66" width="16.96" height="16.96" rx="3.07" fill="#e61952"/></svg>