<svg id="Capa_1" data-name="Capa 1" xmlns="http://www.w3.org/2000/svg" viewBox="0 0 1366 935.98"><path d="M1387.87,39.62v936h-27.48a5,5,0,0,1-1.3-.17,5.31,5.31,0,0,1-4-5.17V956.74a6.41,6.41,0,0,0-6.4-6.4h-75.6a11.49,11.49,0,0,1-11.49-11.49V910a8.8,8.8,0,0,0-8.8-8.8H1231a11.48,11.48,0,0,1-11.49-11.49V867.25a8.83,8.83,0,0,0-8.8-8.8h-28.43a11.91,11.91,0,0,1-11.91-11.91v-29.6a3.56,3.56,0,0,0-3.56-3.57h-6.7a2.68,2.68,0,0,1-2.67-2.67v-2a2.75,2.75,0,0,0-2.75-2.75H21.87V39.62Z" transform="translate(-21.87 -39.62)" fill="#fff"/></svg>