<svg id="Capa_1" data-name="Capa 1" xmlns="http://www.w3.org/2000/svg" viewBox="0 0 121.04 90.65"><path d="M150.79,40.5a10.9,10.9,0,0,1-1.94,8.2l0,0-.84,1L132.25,68.6a4,4,0,0,1-6.13,0L110.37,49.72l-.83-1,0,0a10.87,10.87,0,1,1,18.16-11.92,1.74,1.74,0,0,0,3,0,10.88,10.88,0,0,1,20.11,3.72Z" transform="translate(-30.78 -29.02)" fill="#00b3ea" stroke="#560b26" stroke-miterlimit="10" stroke-width="1.79"/><path d="M114.44,88.86,90.51,118.14a1.73,1.73,0,0,1-3.07-1.09l0-15.56a1.72,1.72,0,0,0-.69-1.38L74.28,90.78a1.73,1.73,0,0,1,1-3.12L113,86A1.74,1.74,0,0,1,114.44,88.86Z" transform="translate(-30.78 -29.02)" fill="#00b3ea" stroke="#560b26" stroke-miterlimit="10" stroke-width="1.79"/><line x1="56.64" y1="71.6" x2="83.78" y2="57.82" fill="#00b3ea" stroke="#560b26" stroke-miterlimit="10" stroke-width="1.79"/><path d="M81.32,33.23V55A3.31,3.31,0,0,1,78,58.28h0a1.66,1.66,0,0,0-1.53,1L72.05,70a2.52,2.52,0,0,1-4.66,0L63,59.3a1.66,1.66,0,0,0-1.53-1H35A3.31,3.31,0,0,1,31.68,55V33.23A3.31,3.31,0,0,1,35,29.92H78A3.31,3.31,0,0,1,81.32,33.23Z" transform="translate(-30.78 -29.02)" fill="#00b3ea" stroke="#560b26" stroke-miterlimit="10" stroke-width="1.79"/><line x1="9.65" y1="10.63" x2="40.32" y2="10.63" fill="#00b3ea" stroke="#560b26" stroke-linecap="round" stroke-miterlimit="10" stroke-width="2.72"/><line x1="9.65" y1="17.93" x2="25.72" y2="17.93" fill="#00b3ea" stroke="#560b26" stroke-linecap="round" stroke-miterlimit="10" stroke-width="2.72"/></svg>