<svg id="Capa_1" data-name="Capa 1" xmlns="http://www.w3.org/2000/svg" viewBox="0 0 87.48 95.84"><path d="M124.27,79.64,99.63,89.93a3.39,3.39,0,0,1-4.7-3.13V43.69a6.33,6.33,0,0,1,3.9-5.85l24.64-10.3a3.39,3.39,0,0,1,4.7,3.13v43.1A6.36,6.36,0,0,1,124.27,79.64Z" transform="translate(-47.38 -26.69)" fill="#00b3ea" stroke="#560b26" stroke-miterlimit="10" stroke-width="1.16"/><ellipse cx="119.87" cy="72.31" rx="3.34" ry="2.28" transform="translate(-9 159.45) rotate(-85.5)" fill="#560b26"/><ellipse cx="119.87" cy="41.56" rx="3.34" ry="2.28" transform="translate(21.65 131.11) rotate(-85.5)" fill="#560b26"/><line x1="52.46" y1="38" x2="56.9" y2="30.77" fill="none" stroke="#560b26" stroke-linecap="round" stroke-miterlimit="10" stroke-width="1.95"/><line x1="52.46" y1="33.5" x2="56.9" y2="35.27" fill="none" stroke="#560b26" stroke-linecap="round" stroke-miterlimit="10" stroke-width="1.95"/><line x1="70.34" y1="32.02" x2="74.78" y2="24.78" fill="none" stroke="#560b26" stroke-linecap="round" stroke-miterlimit="10" stroke-width="1.95"/><line x1="70.34" y1="27.52" x2="74.78" y2="29.28" fill="none" stroke="#560b26" stroke-linecap="round" stroke-miterlimit="10" stroke-width="1.95"/><path d="M114.56,71.79a26.69,26.69,0,0,1-3.77-6.36,25.55,25.55,0,0,1-1.87-7.21,19.24,19.24,0,0,1,.68-7.49,15.19,15.19,0,0,1,1.55-3.5,12.5,12.5,0,0,1,2.5-3,.87.87,0,1,1,1.14,1.31l0,0-.06,0a11.23,11.23,0,0,0-2.2,2.51A14,14,0,0,0,111,51.19a18,18,0,0,0-.88,6.94,23.92,23.92,0,0,0,1.53,7,25.89,25.89,0,0,0,3.41,6.29l0,0a.32.32,0,0,1-.07.45A.32.32,0,0,1,114.56,71.79Z" transform="translate(-47.38 -26.69)" fill="#560b26"/><path d="M115.26,47.63l.57-4.09a.12.12,0,0,0-.13-.13l-4.21.57a.12.12,0,0,0-.06.2l3.64,3.52A.12.12,0,0,0,115.26,47.63Z" transform="translate(-47.38 -26.69)" fill="#560b26"/><path d="M128.17,96.24l-16.26,1.84a4.16,4.16,0,0,0-3.64,4.26v.16a18.86,18.86,0,1,1-37.69-.9c.5-10.12,9.25-17.89,19.39-17.89h37.5A6.29,6.29,0,0,1,133.75,90h0A6.27,6.27,0,0,1,128.17,96.24Z" transform="translate(-47.38 -26.69)" fill="#00b3ea" stroke="#560b26" stroke-miterlimit="10" stroke-width="2.21"/><line x1="35.23" y1="51.97" x2="35.23" y2="32.93" fill="none" stroke="#560b26" stroke-linecap="round" stroke-miterlimit="10" stroke-width="2.95"/><line x1="20.52" y1="61.64" x2="1.47" y2="61.64" fill="none" stroke="#560b26" stroke-linecap="round" stroke-miterlimit="10" stroke-width="2.95"/><line x1="27.14" y1="54.64" x2="13.67" y2="41.18" fill="none" stroke="#560b26" stroke-linecap="round" stroke-miterlimit="10" stroke-width="2.95"/></svg>