<svg id="Capa_1" data-name="Capa 1" xmlns="http://www.w3.org/2000/svg" viewBox="0 0 17.92 111.68"><path d="M116.87,59.33A8.38,8.38,0,1,1,108.5,51,8.37,8.37,0,0,1,116.87,59.33Z" transform="translate(-99.54 -50.37)" fill="none" stroke="#FFFF50" stroke-miterlimit="10" stroke-width="1.17"/><path d="M116.87,90.58a8.38,8.38,0,1,1-8.37-8.37A8.38,8.38,0,0,1,116.87,90.58Z" transform="translate(-99.54 -50.37)" fill="#FFFF50"/><path d="M116.87,121.84a8.38,8.38,0,1,1-8.37-8.38A8.37,8.37,0,0,1,116.87,121.84Z" transform="translate(-99.54 -50.37)" fill="none" stroke="#FFFF50" stroke-miterlimit="10" stroke-width="1.17"/><path d="M116.87,153.09a8.38,8.38,0,1,1-8.37-8.37A8.38,8.38,0,0,1,116.87,153.09Z" transform="translate(-99.54 -50.37)" fill="none" stroke="#FFFF50" stroke-miterlimit="10" stroke-width="1.17"/></svg>