<svg id="Capa_1" data-name="Capa 1" xmlns="http://www.w3.org/2000/svg" viewBox="0 0 85.65 94.16"><path d="M80.71,108.81a.82.82,0,0,1-.67-.35L67.27,89.63a7.66,7.66,0,0,1-.74-7.24L85.15,37.26a.8.8,0,0,1,.76-.54,2.79,2.79,0,0,1,2.79,2.79V65a2.6,2.6,0,1,0,5.2,0V39.51a2.79,2.79,0,0,1,2.79-2.79h.11a.8.8,0,0,1,.73.48l18.62,45.28a7.7,7.7,0,0,1-.75,7.25l-12.75,18.74a.79.79,0,0,1-.65.34Z" transform="translate(-48.48 -27.27)" fill="#00b3ea"/><path d="M96.74,37.62l18.58,45.2a6.79,6.79,0,0,1-.66,6.4L102,107.91H80.76L68,89.13a6.76,6.76,0,0,1-.65-6.4L86,37.62a1.9,1.9,0,0,1,1.83,1.89V65a3.5,3.5,0,0,0,7,0V39.51a1.89,1.89,0,0,1,1.89-1.89h0m.06-1.8h-.11A3.69,3.69,0,0,0,93,39.51V65a1.7,1.7,0,1,1-3.4,0V39.51a3.69,3.69,0,0,0-3.69-3.69,1.71,1.71,0,0,0-1.59,1.09L65.7,82a8.59,8.59,0,0,0,.83,8.1L79.31,109a1.71,1.71,0,0,0,1.4.74H102a1.73,1.73,0,0,0,1.4-.73l12.74-18.75a8.57,8.57,0,0,0,.84-8.09L98.35,36.83a1.7,1.7,0,0,0-1.55-1Z" transform="translate(-48.48 -27.27)" fill="#560b26"/><rect x="28.39" y="85.35" width="28.94" height="7.91" rx="3.89" fill="#00b3ea"/><path d="M101.92,113.52a3,3,0,0,1,3,3v.13a3,3,0,0,1-3,3H80.75a3,3,0,0,1-3-3v-.13a3,3,0,0,1,3-3h21.17m0-1.79H80.75A4.78,4.78,0,0,0,76,116.51v.13a4.78,4.78,0,0,0,4.78,4.79h21.17a4.78,4.78,0,0,0,4.78-4.79v-.13a4.78,4.78,0,0,0-4.78-4.78Z" transform="translate(-48.48 -27.27)" fill="#560b26"/><path d="M59.5,63.86a31.84,31.84,0,1,1,63.67,0" transform="translate(-48.48 -27.27)" fill="none" stroke="#560b26" stroke-linecap="round" stroke-miterlimit="10" stroke-width="2.69"/><line x1="1.91" y1="4.75" x2="83.8" y2="4.75" fill="none" stroke="#560b26" stroke-linecap="round" stroke-miterlimit="10" stroke-width="2.69"/><circle cx="4.75" cy="4.75" r="4.75" fill="#560b26"/><circle cx="80.9" cy="4.75" r="4.75" fill="#560b26"/></svg>