<svg id="Capa_1" data-name="Capa 1" xmlns="http://www.w3.org/2000/svg" viewBox="0 0 32.08 32.23"><g id="WA_Logo" data-name="WA Logo"><path d="M46.66,23.86A16,16,0,0,0,21.52,43.13L19.25,51.4l8.47-2.22a15.86,15.86,0,0,0,7.63,2h0a16,16,0,0,0,11.3-27.27ZM35.36,48.43h0a13.26,13.26,0,0,1-6.76-1.85l-.48-.29-5,1.32,1.34-4.9-.32-.5a13.27,13.27,0,1,1,11.25,6.22Zm7.28-9.94c-.4-.2-2.36-1.17-2.73-1.3s-.63-.2-.89.2-1,1.3-1.27,1.57-.46.3-.86.1a11,11,0,0,1-3.21-2,11.67,11.67,0,0,1-2.22-2.76c-.24-.4,0-.61.17-.81s.4-.47.6-.7a2.7,2.7,0,0,0,.4-.67.75.75,0,0,0,0-.7c-.1-.2-.9-2.16-1.23-3s-.66-.67-.9-.68-.5,0-.77,0a1.46,1.46,0,0,0-1.06.5,4.47,4.47,0,0,0-1.4,3.33,7.8,7.8,0,0,0,1.63,4.13c.2.26,2.82,4.29,6.82,6a22,22,0,0,0,2.27.84,5.45,5.45,0,0,0,2.52.16,4.09,4.09,0,0,0,2.69-1.9A3.27,3.27,0,0,0,43.41,39C43.31,38.79,43,38.69,42.64,38.49Z" transform="translate(-19.25 -19.18)" fill="#560b26" fill-rule="evenodd"/></g></svg>