<svg id="Capa_1" data-name="Capa 1" xmlns="http://www.w3.org/2000/svg" viewBox="0 0 32.08 32.23"><g id="WA_Logo" data-name="WA Logo"><path d="M58.82,36A16,16,0,0,0,33.68,55.29l-2.27,8.28,8.47-2.22a16,16,0,0,0,7.63,1.94h0a16,16,0,0,0,16-16A15.82,15.82,0,0,0,58.82,36ZM47.52,60.59h0a13.24,13.24,0,0,1-6.76-1.85l-.49-.29-5,1.32,1.34-4.9-.32-.5a13.28,13.28,0,1,1,11.25,6.22Zm7.28-9.94c-.4-.2-2.36-1.16-2.72-1.3s-.64-.2-.9.2-1,1.3-1.27,1.57-.46.3-.86.1a10.82,10.82,0,0,1-3.21-2,11.87,11.87,0,0,1-2.22-2.77c-.23-.4,0-.61.17-.81s.4-.47.6-.7a2.53,2.53,0,0,0,.4-.67.7.7,0,0,0,0-.69c-.1-.2-.9-2.17-1.23-3s-.65-.67-.9-.68l-.76,0a1.48,1.48,0,0,0-1.07.5,4.51,4.51,0,0,0-1.4,3.33A7.76,7.76,0,0,0,41,47.89c.2.27,2.82,4.3,6.82,6a19.89,19.89,0,0,0,2.28.84,5.28,5.28,0,0,0,2.51.16A4.11,4.11,0,0,0,55.34,53a3.36,3.36,0,0,0,.23-1.9C55.47,51,55.2,50.85,54.8,50.65Z" transform="translate(-31.41 -31.34)" fill="#e61952" fill-rule="evenodd"/></g></svg>