<svg xmlns="http://www.w3.org/2000/svg" xmlns:xlink="http://www.w3.org/1999/xlink" width="115.306" height="115.993" viewBox="0 0 115.306 115.993">
  <defs>
    <clipPath id="clip-path">
      <rect id="Rectángulo_76" data-name="Rectángulo 76" width="115.306" height="115.993" transform="translate(0 0)" fill="none"/>
    </clipPath>
  </defs>
  <g id="Grupo_1108" data-name="Grupo 1108" transform="translate(0 -0.003)">
    <g id="Grupo_1107" data-name="Grupo 1107" transform="translate(0 0.003)" clip-path="url(#clip-path)">
      <path id="Trazado_2015" data-name="Trazado 2015" d="M25.844,0H89.463a25.918,25.918,0,0,1,25.844,25.844V90.126A25.923,25.923,0,0,1,89.463,116H25.844A25.923,25.923,0,0,1,0,90.126V25.847A25.918,25.918,0,0,1,25.844,0" transform="translate(0 -0.003)" fill="#20b038" fill-rule="evenodd"/>
      <path id="Trazado_2016" data-name="Trazado 2016" d="M283.231,246.628a37.982,37.982,0,0,0-75.894-.713c-.053.528-.053,1.109-.053,1.61a37.841,37.841,0,0,0,5.438,19.534l-6.863,20.221,21.066-6.679a38.144,38.144,0,0,0,56.386-33.077c0-.317-.079-.581-.079-.9m-37.96,32.681a32.1,32.1,0,0,1-17.581-5.253l-12.249,3.88,3.96-11.8a31.3,31.3,0,0,1-6.1-18.611,23.475,23.475,0,0,1,.211-3.036,31.969,31.969,0,0,1,63.645.581c.053.845.053,1.689.053,2.455a31.917,31.917,0,0,1-31.941,31.783" transform="translate(-186.932 -190.585)" fill="#fff" fill-rule="evenodd"/>
      <path id="Trazado_2017" data-name="Trazado 2017" d="M462.321,451.6c-.924-.238-1.5-.449-2.165.528-.95,1.5-2.957,4.8-4.91,3.828a24.318,24.318,0,0,1-7.523-4.593A27.833,27.833,0,0,1,442.549,445c-.818-1.531,1.769-3.141,2.719-5.068a1.574,1.574,0,0,0-.079-1.61c-.185-.449-2.059-5.042-2.851-6.863-.766-1.874-1.558-1.557-2.059-1.557-5.174,0-7.6,3.669-7.6,8.817a10.422,10.422,0,0,0,.528,3.115,20.927,20.927,0,0,0,3.3,6.415c.449.634,6.415,10.242,15.892,13.938,9.53,3.7,9.53,2.455,11.219,2.323,1.663-.132,5.491-2.191,6.283-4.408.766-2.138.766-4.013.5-4.409-.317-.554-8.078-4.065-8.078-4.092" transform="translate(-392.894 -390.352)" fill="#fff" fill-rule="evenodd"/>
    </g>
  </g>
</svg>
